<?xml version="1.0" encoding="UTF-8"?> <svg xmlns="http://www.w3.org/2000/svg" width="180" height="29" viewBox="0 0 180 29" fill="none"><path d="M51.7192 22.2626V15.0921H38.5387V22.2626H34.5312V4.28516H38.5387V11.6128H51.7192V4.28516H55.6992V22.2626H51.7192Z" fill="#EAF2F0"></path><path d="M60.1535 7.15919C59.1777 7.15919 58.8086 6.79007 58.8086 5.94588V4.41643C58.8086 3.57225 59.1777 3.23047 60.1535 3.23047H61.4454C62.4468 3.23047 62.8159 3.57225 62.8159 4.41643V5.94588C62.8159 6.79007 62.4468 7.15919 61.4454 7.15919H60.1535ZM58.8086 22.2623V8.34515H62.8159V22.2623H58.8086Z" fill="#EAF2F0"></path><path d="M79.4237 21.3144C78.8444 22.1056 78.1318 22.6593 76.7356 22.6593C75.3394 22.6593 74.6012 22.1329 74.0202 21.3144L64.6094 7.97656H69.302L76.7886 18.9151L84.1949 7.97656H88.8345L79.4237 21.3144Z" fill="#EAF2F0"></path><path d="M93.1279 16.5686V17.2282C93.1279 18.9678 93.6543 19.284 95.4999 19.284H100.139V22.2626H95.4999C90.9662 22.2626 89.1992 20.6289 89.1992 16.8317V13.537C89.1992 9.37247 90.6484 7.97461 95.6844 7.97461H102.59C106.676 7.97461 107.809 9.6083 107.809 11.876V16.5686H93.1262H93.1279ZM103.882 12.1938C103.882 11.2454 103.46 11.0079 102.274 11.0079H95.7374C93.7602 11.0079 93.1279 11.2181 93.1279 13.2756V14.0394H103.882V12.1938Z" fill="#EAF2F0"></path><path d="M125.128 17.1223V22.2626H121.121V4.28516H135.513C140.654 4.28516 142.262 5.84024 142.262 10.0851V11.6402C142.262 15.9363 140.76 17.1223 135.513 17.1223H125.128ZM138.256 10.2423C138.256 8.29249 137.571 7.73881 135.409 7.73881H125.128V13.8805H135.462C137.571 13.8805 138.256 13.3798 138.256 11.4813V10.2423Z" fill="#EAF2F0"></path><path d="M144.766 22.2628V13.9867C144.766 9.7162 146.637 7.97656 151.461 7.97656H154.018V11.167H151.565C149.378 11.167 148.693 11.7464 148.693 14.014V22.2645H144.766V22.2628Z" fill="#EAF2F0"></path><path d="M162.69 22.2628C157.393 22.2628 155.836 20.6291 155.836 16.0955V14.1713C155.836 9.61025 157.391 7.97656 162.69 7.97656H167.461C172.786 7.97656 174.341 9.61025 174.341 14.1969V16.0955C174.341 20.6291 172.786 22.2628 167.461 22.2628H162.69ZM170.414 14.3028C170.414 11.8779 169.782 11.3499 166.935 11.3499H163.218C160.424 11.3499 159.765 11.8762 159.765 14.3028V15.9895C159.765 18.3614 160.424 18.9425 163.218 18.9425H166.935C169.782 18.9425 170.414 18.3631 170.414 15.9895V14.3028Z" fill="#EAF2F0"></path><path d="M22.7169 7.84216L22.1562 6.82538L22.7169 5.80859H23.8396L24.4 6.82538L23.8396 7.84216H22.7169Z" fill="#EAF2F0"></path><path d="M24.8455 9.34957L24.4405 8.625L24.3107 8.85912H22.207L23.757 11.6258L24.162 10.8944H25.7119L24.8438 9.34957H24.8455Z" fill="#EAF2F0"></path><path d="M24.1452 17.3383L23.7197 16.5676C23.5437 16.8906 23.3677 17.2136 23.1934 17.5366C22.8328 18.1979 22.474 18.8609 22.1151 19.5223L18.1864 19.5496L15.9939 19.565L14.0047 16.0139L12.8991 14.0385L14.8455 10.4549C15.2044 9.7936 15.5649 9.13056 15.9238 8.46922L19.8525 8.44188L21.9869 8.4265L21.2692 7.12604L21.64 6.45274L18.1043 6.47837L15.8948 6.49375C14.9873 4.87544 14.0816 3.25542 13.1742 1.63711L12.5317 0.48874C12.3676 0.191395 12.0566 0.00341776 11.7165 0L7.23756 0.0307599L4.82804 0.0478487C4.38031 0.0512665 3.94967 0.0615197 3.68138 0.555387L3.46264 0.960392L0.747225 5.96058L0.118357 7.1175C0.0346213 7.27129 -0.004683 7.4456 0.000443653 7.62161C0.000443653 7.63529 0.000443653 7.64725 0.000443653 7.66092C0.000443653 7.67459 0.000443653 7.68143 0.00215253 7.69168C0.0124058 7.83523 0.0551279 7.97535 0.125192 8.1001C0.880518 9.44841 1.63414 10.7967 2.38946 12.145L3.48827 14.1068L1.53331 17.7057C1.08217 18.5345 0.63273 19.3633 0.183294 20.1922C0.0995588 20.346 0.0602545 20.5203 0.0653812 20.6963C0.0653812 20.7099 0.0653812 20.7219 0.0653812 20.7356C0.0653812 20.7458 0.0653812 20.7561 0.0670901 20.7663C0.0773434 20.9099 0.120065 21.05 0.19013 21.1765C0.945456 22.5248 1.69907 23.8731 2.4544 25.2214L3.67283 27.3951C3.89499 27.7933 4.11885 28.1795 4.65373 28.1761L5.09804 28.1726L10.5938 28.135L11.8652 28.1265C12.2104 28.1197 12.5266 27.9266 12.6872 27.6207L14.9002 23.5467L15.987 21.5456L21.3939 21.508L22.6654 21.4994C23.0105 21.4926 23.3267 21.2995 23.4873 20.9936L25.4713 17.34H24.1435L24.1452 17.3383ZM3.13795 9.43132L2.03231 7.45585L3.97872 3.87233C4.33759 3.21099 4.69816 2.54794 5.05703 1.88661L8.98575 1.85926L11.1782 1.84388L13.1674 5.39494L14.273 7.37041C13.6237 8.56492 12.976 9.75943 12.3266 10.9539C11.9677 11.6153 11.6072 12.2783 11.2483 12.9397L7.31959 12.967L5.12709 12.9824L3.13795 9.43132ZM12.3916 24.0286L11.3132 26.0143L7.38453 26.0417L5.19203 26.057L3.20289 22.506L2.09724 20.5305L4.04366 16.947L5.12196 14.9613L9.05069 14.9339L11.2432 14.9185L13.2323 18.4696C13.6014 19.1275 13.9706 19.7871 14.338 20.4451L12.3916 24.0286Z" fill="#EAF2F0"></path><path d="M24.6293 16.3215L23.3203 13.9479L24.6293 11.5742H27.249L28.558 13.9479L27.249 16.3215H24.6293Z" fill="#EAF2F0"></path><path d="M25.862 9.53644L25.0195 8.01041L25.862 6.48438H27.5453L28.3877 8.01041L27.5453 9.53644H25.862Z" fill="#EAF2F0"></path><path d="M29.6699 12.5902L29.1094 11.5734L29.6699 10.5566H30.7926L31.3531 11.5734L30.7926 12.5902H29.6699Z" fill="#EAF2F0"></path><path d="M177.845 4.32812C178.142 4.32812 178.423 4.38452 178.684 4.4973C178.946 4.61009 179.175 4.76389 179.368 4.9587C179.561 5.15352 179.716 5.38251 179.829 5.64396C179.942 5.90542 179.998 6.18568 179.998 6.48303C179.998 6.78037 179.942 7.06063 179.829 7.32038C179.716 7.58013 179.563 7.80912 179.368 8.00393C179.173 8.19874 178.946 8.35254 178.684 8.46533C178.423 8.57811 178.142 8.63451 177.845 8.63451C177.647 8.63451 177.457 8.60888 177.274 8.55761C177.091 8.50634 176.921 8.43457 176.762 8.34058C176.603 8.24659 176.457 8.13381 176.328 8.00393C176.196 7.87406 176.083 7.7288 175.989 7.56988C175.895 7.41095 175.823 7.23835 175.772 7.0555C175.721 6.87265 175.695 6.68126 175.695 6.48473C175.695 6.28821 175.721 6.09682 175.772 5.91226C175.823 5.7277 175.895 5.55681 175.989 5.39789C176.083 5.23896 176.196 5.0937 176.328 4.96383C176.459 4.83225 176.604 4.71946 176.762 4.62547C176.921 4.53148 177.091 4.45971 177.274 4.40844C177.457 4.35718 177.649 4.33154 177.845 4.33154V4.32812ZM177.845 8.344C178.016 8.344 178.18 8.32179 178.337 8.27736C178.494 8.23293 178.643 8.1714 178.78 8.09108C178.917 8.01077 179.041 7.91507 179.152 7.80228C179.263 7.6895 179.359 7.56475 179.439 7.42633C179.518 7.28791 179.58 7.13924 179.622 6.98202C179.665 6.82309 179.687 6.65733 179.687 6.48303C179.687 6.30872 179.665 6.14125 179.622 5.98061C179.58 5.81998 179.518 5.6696 179.439 5.53118C179.361 5.39276 179.265 5.2663 179.152 5.15181C179.041 5.03902 178.917 4.94161 178.78 4.85959C178.643 4.77756 178.494 4.71604 178.337 4.67161C178.18 4.62718 178.016 4.60496 177.845 4.60496C177.674 4.60496 177.512 4.62718 177.355 4.67161C177.197 4.71604 177.052 4.77756 176.917 4.85959C176.782 4.94161 176.659 5.03902 176.546 5.15181C176.435 5.2663 176.34 5.39105 176.261 5.53118C176.182 5.6696 176.123 5.81998 176.078 5.98061C176.035 6.14125 176.013 6.30872 176.013 6.48303C176.013 6.65733 176.035 6.82138 176.078 6.98031C176.121 7.13924 176.182 7.28791 176.261 7.42633C176.34 7.56475 176.434 7.6895 176.546 7.80228C176.659 7.91507 176.782 8.01077 176.917 8.09108C177.052 8.1714 177.197 8.23293 177.355 8.27736C177.512 8.32179 177.674 8.344 177.845 8.344ZM177.814 5.16206C178.158 5.16206 178.411 5.22529 178.576 5.35004C178.742 5.47478 178.824 5.65934 178.824 5.89859C178.824 6.07631 178.775 6.23182 178.672 6.3634C178.571 6.49499 178.419 6.58556 178.216 6.63683C178.252 6.65904 178.283 6.68467 178.308 6.71543C178.334 6.74619 178.359 6.78379 178.383 6.82651L179.017 7.7869H178.539C178.469 7.7869 178.418 7.75957 178.387 7.70489L177.838 6.85044C177.821 6.82309 177.799 6.80259 177.775 6.78892C177.751 6.77524 177.714 6.76841 177.662 6.76841H177.449V7.7869H176.946V5.16035H177.816L177.814 5.16206ZM177.765 6.40613C177.872 6.40613 177.963 6.39587 178.035 6.37708C178.107 6.35657 178.165 6.32923 178.209 6.29163C178.254 6.25404 178.284 6.2079 178.303 6.1515C178.322 6.09511 178.33 6.03188 178.33 5.96182C178.33 5.89175 178.322 5.83023 178.305 5.77897C178.288 5.7277 178.26 5.68498 178.219 5.6508C178.18 5.61662 178.127 5.59099 178.06 5.5739C177.994 5.55681 177.912 5.54827 177.813 5.54827H177.445V6.40271H177.763L177.765 6.40613Z" fill="#EAF2F0"></path></svg> 